<?xml version="1.0" encoding="UTF-8"?>
<svg id="Layer_1" xmlns="http://www.w3.org/2000/svg" xmlns:xlink="http://www.w3.org/1999/xlink" version="1.1" viewBox="0 0 168 35">
  <!-- Generator: Adobe Illustrator 29.0.1, SVG Export Plug-In . SVG Version: 2.1.0 Build 192)  -->
  <defs>
    <style>
      .st0 {
        fill: none;
      }

      .st1 {
        fill: #52b2cf;
      }

      .st2 {
        fill: #fff;
      }

      .st3 {
        clip-path: url(#clippath);
      }
    </style>
    <clipPath id="clippath">
      <path class="st0" d="M17.2,0h0c9.4,0,17.1,7.6,17.1,17.1s-7.6,17.1-17.1,17.1S.1,26.5.1,17.1,7.8,0,17.2,0Z"/>
    </clipPath>
  </defs>
  <path class="st2" d="M44.3,24.6v-14.8h5.9c1,0,1.8.2,2.5.6.6.4,1.1.9,1.4,1.5.3.6.5,1.3.5,1.9s-.2,1.5-.6,2.1c-.4.6-.9.9-1.6,1.1v-.5c.9.2,1.6.7,2.1,1.3.5.7.7,1.4.7,2.3s-.2,1.6-.5,2.3c-.3.7-.8,1.2-1.5,1.5-.7.4-1.5.6-2.4.6h-6.4ZM46.8,22.3h3.6c.4,0,.8,0,1.2-.3.3-.2.6-.4.8-.7.2-.3.3-.7.3-1.1s0-.8-.3-1.1c-.2-.3-.4-.6-.7-.7-.3-.2-.7-.3-1.2-.3h-3.7v4.2ZM46.8,15.7h3.3c.4,0,.7,0,1-.2s.5-.3.7-.6c.2-.3.2-.6.2-1s-.2-.9-.5-1.3c-.3-.3-.8-.5-1.4-.5h-3.3v3.6ZM57.2,11.9v-2.3h2.5v2.3h-2.5ZM57.2,24.6v-11.1h2.5v11.1h-2.5ZM75.8,24.6v-6.7c0-.8-.2-1.3-.6-1.8-.4-.4-.9-.6-1.5-.6s-.8,0-1.1.3c-.3.2-.6.4-.7.8-.2.3-.3.8-.3,1.3l-1.1-.6c0-.8.2-1.4.5-2,.4-.6.8-1,1.4-1.4.6-.3,1.3-.5,2-.5,1.2,0,2.2.4,2.8,1.1.7.7,1,1.7,1,2.9v7.4h-2.5ZM62.5,24.6v-11.1h2.2v3.4h.3v7.6h-2.5ZM69.2,24.6v-6.7c0-.8-.2-1.4-.6-1.8-.4-.4-.9-.6-1.5-.6s-1.1.2-1.5.6c-.4.4-.6,1-.6,1.7l-1.1-.7c0-.7.2-1.4.5-1.9.4-.6.8-1,1.4-1.4.6-.3,1.3-.5,2-.5s1.5.2,2.1.5c.6.3,1,.8,1.3,1.4.3.6.4,1.3.4,2v7.3h-2.5ZM94.1,24.6v-6.7c0-.8-.2-1.3-.6-1.8-.4-.4-.9-.6-1.5-.6s-.8,0-1.1.3c-.3.2-.6.4-.7.8-.2.3-.3.8-.3,1.3l-1.1-.6c0-.8.2-1.4.5-2,.4-.6.8-1,1.4-1.4.6-.3,1.3-.5,2-.5,1.2,0,2.2.4,2.8,1.1.7.7,1,1.7,1,2.9v7.4h-2.5ZM80.7,24.6v-11.1h2.2v3.4h.3v7.6h-2.5ZM87.4,24.6v-6.7c0-.8-.2-1.4-.6-1.8-.4-.4-.9-.6-1.5-.6s-1.1.2-1.5.6c-.4.4-.6,1-.6,1.7l-1.1-.7c0-.7.2-1.4.5-1.9.4-.6.8-1,1.4-1.4.6-.3,1.3-.5,2-.5s1.5.2,2.1.5c.6.3,1,.8,1.3,1.4.3.6.4,1.3.4,2v7.3h-2.5ZM103.9,24.9c-1.1,0-2.1-.2-3-.7-.8-.5-1.5-1.2-2-2-.5-.9-.7-1.9-.7-3s.2-2.3.7-3.1c.5-.9,1.1-1.6,1.9-2.1.8-.5,1.8-.7,2.9-.7s2.1.3,2.9.8c.8.5,1.4,1.3,1.8,2.3.4,1,.5,2.1.4,3.5h-2.5v-.9c0-1.2-.2-2.1-.6-2.6-.4-.6-1.1-.8-2-.8s-1.8.3-2.3.9c-.5.6-.7,1.5-.7,2.7s.2,2,.7,2.6c.5.6,1.2.9,2.2.9s1.1-.1,1.6-.4c.4-.3.8-.7,1-1.2l2.4.7c-.4,1-1.1,1.8-2,2.3-.9.6-1.9.8-2.9.8ZM100,19.8v-1.9h7.6v1.9h-7.6ZM111,24.6v-11.1h2.2v2.7l-.3-.3c.1-.4.3-.7.5-1,.2-.3.5-.6.8-.8.3-.2.6-.3.9-.4.3-.1.7-.2,1-.2.3,0,.7,0,1,0v2.3c-.3,0-.7-.1-1.1,0-.4,0-.8.2-1.1.4-.3.2-.6.4-.8.7-.2.3-.4.6-.5,1-.1.4-.2.8-.2,1.2v5.6h-2.5ZM122.5,24.6v-12.4h-4.8v-2.3h12v2.3h-4.8v12.4h-2.5ZM134.6,24.9c-1.1,0-2.1-.2-3-.7-.8-.5-1.5-1.2-2-2-.5-.9-.7-1.9-.7-3s.2-2.3.7-3.1c.5-.9,1.1-1.6,1.9-2.1.8-.5,1.8-.7,2.9-.7s2.1.3,2.9.8c.8.5,1.4,1.3,1.8,2.3.4,1,.5,2.1.4,3.5h-2.5v-.9c0-1.2-.2-2.1-.6-2.6-.4-.6-1.1-.8-2-.8s-1.8.3-2.3.9c-.5.6-.7,1.5-.7,2.7s.2,2,.7,2.6c.5.6,1.2.9,2.2.9s1.1-.1,1.6-.4c.4-.3.8-.7,1-1.2l2.4.7c-.4,1-1.1,1.8-2,2.3-.9.6-1.9.8-2.9.8ZM130.7,19.8v-1.9h7.6v1.9h-7.6ZM146.5,24.9c-1.1,0-2.1-.3-2.9-.8-.8-.5-1.4-1.2-1.9-2.1-.4-.9-.6-1.9-.6-3,0-1.1.2-2.1.7-3,.4-.9,1.1-1.6,1.9-2.1.8-.5,1.8-.8,2.9-.8s2.3.3,3.2,1c.9.6,1.4,1.5,1.7,2.6l-2.5.7c-.2-.6-.5-1.1-1-1.4-.4-.3-.9-.5-1.5-.5s-1.2.2-1.6.5c-.4.3-.7.7-.9,1.3s-.3,1.1-.3,1.8c0,1.1.2,1.9.7,2.6.5.6,1.2,1,2.1,1s1.2-.2,1.5-.5c.4-.3.7-.7.9-1.3l2.5.6c-.3,1.1-.9,2-1.8,2.6-.9.6-1.9.9-3.1.9ZM160.9,24.6v-5.3c0-.3,0-.7,0-1.2,0-.4-.2-.8-.3-1.2-.2-.4-.4-.7-.8-1-.3-.3-.8-.4-1.4-.4s-.6,0-.9.2c-.3.1-.6.3-.8.5-.2.2-.4.6-.6,1-.2.4-.2,1-.2,1.7l-1.5-.6c0-.9.2-1.8.5-2.6.4-.8.9-1.4,1.6-1.8.7-.5,1.6-.7,2.6-.7s1.5.1,2,.4c.5.3,1,.6,1.3,1,.3.4.5.9.7,1.4.1.5.2.9.3,1.4,0,.4,0,.8,0,1v6.2h-2.5ZM153.2,24.6v-14.8h2.2v7.8h.3v7h-2.5Z"/>
  <g class="st3">
    <g>
      <path class="st1" d="M-2.1-3.1L.5-.7l15.3,16.7-11.7,5.2,23.9,24.7H-1.1L-2.1-3.1Z"/>
      <path class="st1" d="M-1.9-2.4L20.4,14,58.1-2.2-1.9-2.4Z"/>
      <path class="st1" d="M47.3,2.2L12.9,23.2l14.9,22.9h19.5V2.2Z"/>
    </g>
  </g>
</svg>